<?xml version="1.0" encoding="UTF-8" standalone="no"?>
<!-- Created with Inkscape (http://www.inkscape.org/) -->

<svg
   xmlns:dc="http://purl.org/dc/elements/1.1/"
   xmlns:cc="http://creativecommons.org/ns#"
   xmlns:rdf="http://www.w3.org/1999/02/22-rdf-syntax-ns#"
   xmlns:svg="http://www.w3.org/2000/svg"
   xmlns="http://www.w3.org/2000/svg"
   xmlns:sodipodi="http://sodipodi.sourceforge.net/DTD/sodipodi-0.dtd"
   xmlns:inkscape="http://www.inkscape.org/namespaces/inkscape"
   width="744.09448819"
   height="1052.3622047"
   id="svg2"
   version="1.1"
   inkscape:version="0.48.5 r10040"
   sodipodi:docname="desenho.svg">
  <defs
     id="defs4" />
  <sodipodi:namedview
     id="base"
     pagecolor="#ffffff"
     bordercolor="#666666"
     borderopacity="1.0"
     inkscape:pageopacity="0.0"
     inkscape:pageshadow="2"
     inkscape:zoom="0.82780963"
     inkscape:cx="262.75812"
     inkscape:cy="611.16624"
     inkscape:document-units="px"
     inkscape:current-layer="layer1"
     showgrid="false"
     inkscape:window-width="1536"
     inkscape:window-height="803"
     inkscape:window-x="-8"
     inkscape:window-y="-8"
     inkscape:window-maximized="1"
     showguides="true"
     inkscape:guide-bbox="true">
    <sodipodi:guide
       orientation="0,1"
       position="357.05146,581.70345"
       id="guide3765" />
  </sodipodi:namedview>
  <metadata
     id="metadata7">
    <rdf:RDF>
      <cc:Work
         rdf:about="">
        <dc:format>image/svg+xml</dc:format>
        <dc:type
           rdf:resource="http://purl.org/dc/dcmitype/StillImage" />
        <dc:title></dc:title>
      </cc:Work>
    </rdf:RDF>
  </metadata>
  <g
     inkscape:label="Layer 1"
     inkscape:groupmode="layer"
     id="layer1">
    <path
       style="font-size:medium;font-style:normal;font-variant:normal;font-weight:normal;font-stretch:normal;text-indent:0;text-align:start;text-decoration:none;line-height:normal;letter-spacing:normal;word-spacing:normal;text-transform:none;direction:ltr;block-progression:tb;writing-mode:lr-tb;text-anchor:start;baseline-shift:baseline;color:#000000;fill:#ff0000;fill-opacity:1;stroke:none;stroke-width:1px;marker:none;visibility:visible;display:inline;overflow:visible;enable-background:accumulate;font-family:Sans;-inkscape-font-specification:Sans"
       d="m 193.39736,495.37422 0,0.0937 -8.03125,88.21875 -3.78125,-43.875 -0.96875,-0.125 -5.84375,16.75 -36.40576,0 17.0838,0.14581 19.66571,0.85419 0.34375,0 0.125,-0.34375 5.1875,-14.875 4.09375,47.125 0,0.0937 1,0 0,-0.0937 7.875,-86.5 4.78125,107 0,0.0625 1,0.0625 0,-0.0937 6.78125,-53.28125 13.21875,0 0.28125,0 0.15625,-0.25 c 0,0 1.15423,-1.85272 2.78125,-3.71875 1.62702,-1.86603 3.74758,-3.67867 5.34375,-3.75 1.8161,-0.0811 4.37883,1.74219 6.375,3.65625 1.99617,1.91406 3.46875,3.84375 3.46875,3.84375 l 0.15625,0.21875 0.21875,0 23.9375,0 0.375,0 0.0937,-0.375 3.8125,-13.625 3.78125,13.625 0.0937,0.375 0.375,0 167.41781,0 -70.04358,-1 -96.96798,0 -4.1874,-15.03125 -0.46875,-1.71875 c -1.60266,5.57183 -3.13157,11.16492 -4.6875,16.75 l -23.28125,0 c -0.1303,-0.17023 -1.43827,-1.89422 -3.40625,-3.78125 -2.0623,-1.97746 -4.64316,-4.01576 -7.09375,-3.90625 -2.23066,0.0997 -4.37528,2.12742 -6.0625,4.0625 -1.59275,1.82673 -2.59447,3.42891 -2.71875,3.625 l -13.40625,0 -0.4375,0 -0.0625,0.40625 -6.09375,48.03125 -4.875,-108.5625 0,-0.0625 -1,-0.0312 z"
       id="path2985"
       inkscape:connector-curvature="0"
       sodipodi:nodetypes="cccccccccccccccccccccccccscscccccccccccccccccsssccccccccc" />
    <path
       style="font-size:medium;font-style:normal;font-variant:normal;font-weight:normal;font-stretch:normal;text-indent:0;text-align:start;text-decoration:none;line-height:normal;letter-spacing:normal;word-spacing:normal;text-transform:none;direction:ltr;block-progression:tb;writing-mode:lr-tb;text-anchor:start;baseline-shift:baseline;color:#000000;fill:#ff0000;fill-opacity:1;stroke:#ff0000;stroke-width:1.75219691;stroke-miterlimit:4;stroke-opacity:1;stroke-dasharray:none;marker:none;visibility:visible;display:inline;overflow:visible;enable-background:accumulate;font-family:Sans;-inkscape-font-specification:Sans"
       d="m 80.049318,469.0312 0,-0.0625 -17.038585,-87.15625 -9.24573,43.5 -0.330202,1.5625 -1.584989,-1.34375 -18.293348,-15 -21.067061,0 -57.765411,-1 79.426854,0 0.594349,0 0.330214,0.25 16.972527,13.9375 9.97219,-46.9375 0,-0.0937 2.047259,0 0,0.0937 16.576291,84.5 8.453235,-106.6875 0,-0.0937 2.047282,-0.0625 0,0.0937 19.746227,55 13.53843,0 0.92456,0 0.13209,0.4375 4.29266,14.15625 8.057,-31.21875 2.04726,-0.0937 17.35036,73.50155 c 27.26868,0.14931 68.58539,0.29863 81.80102,0.44794 l 452.22767,1.85419 -427.97622,-1.30213 -64.39067,0 -40.96703,-0.375 -18.6395,-71.5328 -8.38721,32.5 0,0.125 -2.11329,0.0312 -5.28329,-17.53125 -13.5384,0 -0.85853,0 -0.19801,-0.40625 -18.161274,-50.84375 -8.585325,109.65625 0,0.0625 -2.113303,0.0312 z"
       id="path2989"
       inkscape:connector-curvature="0"
       sodipodi:nodetypes="cccccccccccccccccccccccccccccccccccccccccccccccc"
       inkscape:export-filename="C:\Users\adriana.nascimento\Desktop\pixels.png"
       inkscape:export-xdpi="28.273808"
       inkscape:export-ydpi="28.273808" />
    <path
       sodipodi:type="arc"
       style="fill:#ffffff;fill-rule:evenodd;stroke:none"
       id="path3755"
       sodipodi:cx="549.2442"
       sodipodi:cy="413.42798"
       sodipodi:rx="4.2709503"
       sodipodi:ry="4.2709503"
       d="m 553.51515,413.42798 a 4.2709503,4.2709503 0 1 1 -8.5419,0 4.2709503,4.2709503 0 1 1 8.5419,0 z"
       transform="matrix(0.49999998,0,0,0.49999998,293.13414,206.2869)"
       inkscape:export-filename="C:\Users\adriana.nascimento\Desktop\pixels.png"
       inkscape:export-xdpi="28"
       inkscape:export-ydpi="28" />
    <text
       xml:space="preserve"
       style="font-size:40px;font-style:normal;font-weight:normal;line-height:125%;letter-spacing:0px;word-spacing:0px;fill:#000000;fill-opacity:1;stroke:none;font-family:Sans"
       x="185.35925"
       y="386.0939"
       id="text3757"
       sodipodi:linespacing="125%"><tspan
         sodipodi:role="line"
         id="tspan3759"
         x="185.35925"
         y="386.0939" /></text>
    <text
       xml:space="preserve"
       style="font-size:126.47367096000001000px;font-style:normal;font-weight:normal;line-height:125%;letter-spacing:0px;word-spacing:0px;fill:#ffffff;fill-opacity:1;stroke:#ffffff;stroke-opacity:1;font-family:Sans"
       x="154.5369"
       y="431.73541"
       id="text3761"
       sodipodi:linespacing="125%"
       inkscape:export-filename="C:\Users\adriana.nascimento\Desktop\pixels.png"
       inkscape:export-xdpi="28"
       inkscape:export-ydpi="28"><tspan
         sodipodi:role="line"
         id="tspan3763"
         x="154.5369"
         y="431.73541"
         style="font-style:normal;font-variant:normal;font-weight:normal;font-stretch:normal;fill:#ffffff;stroke:#ffffff;stroke-opacity:1;font-family:Asenine;-inkscape-font-specification:Asenine">Talking in bits</tspan></text>
  </g>
</svg>
